<?xml version="1.0" encoding="UTF-8"?>
<svg xmlns="http://www.w3.org/2000/svg" xmlns:xlink="http://www.w3.org/1999/xlink" width="30px" height="30px" viewBox="0 0 30 30" version="1.1">
<g id="surface1">
<path style=" stroke:none;fill-rule:nonzero;fill:rgb(0%,0%,0%);fill-opacity:1;" d="M 6.5625 14.0625 L 25.3125 14.0625 C 25.832031 14.0625 26.25 14.480469 26.25 15 C 26.25 15.519531 25.832031 15.9375 25.3125 15.9375 L 6.5625 15.9375 C 6.042969 15.9375 5.625 15.519531 5.625 15 C 5.625 14.480469 6.042969 14.0625 6.5625 14.0625 Z M 6.5625 14.0625 "/>
<path style=" stroke:none;fill-rule:nonzero;fill:rgb(0%,0%,0%);fill-opacity:1;" d="M 6.949219 15 L 14.726562 22.773438 C 15.09375 23.140625 15.09375 23.734375 14.726562 24.101562 C 14.359375 24.46875 13.765625 24.46875 13.398438 24.101562 L 4.960938 15.664062 C 4.785156 15.488281 4.6875 15.25 4.6875 15 C 4.6875 14.75 4.785156 14.511719 4.960938 14.335938 L 13.398438 5.898438 C 13.765625 5.53125 14.359375 5.53125 14.726562 5.898438 C 15.09375 6.265625 15.09375 6.859375 14.726562 7.226562 Z M 6.949219 15 "/>
</g>
</svg>
