<!-- <?xml version="1.0" encoding="iso-8859-1"?> -->
<!-- <?xml-stylesheet type="text/css" href="../sass/style.css"?> -->
<svg width="32" height="40" viewBox="0 0 32 40" fill="none" xmlns="http://www.w3.org/2000/svg">
<g clip-path="url(#clip0_144_1552)">
<path d="M15.1591 28.5275C14.9648 28.779 14.8573 29.1158 14.8597 29.4654C14.8621 29.815 14.9743 30.1494 15.1721 30.3966C15.3698 30.6438 15.6374 30.7841 15.917 30.7871C16.1967 30.7901 16.4662 30.6557 16.6673 30.4129L22.3569 23.2742C22.4066 23.2123 22.446 23.1387 22.4729 23.0577C22.4998 22.9767 22.5136 22.8899 22.5136 22.8022C22.5136 22.7145 22.4998 22.6277 22.4729 22.5467C22.446 22.4657 22.4066 22.3921 22.3569 22.3302L16.6673 15.1942C16.4662 14.9513 16.1967 14.8169 15.917 14.82C15.6374 14.823 15.3698 14.9632 15.1721 15.2104C14.9743 15.4576 14.8621 15.7921 14.8597 16.1417C14.8573 16.4913 14.9648 16.8281 15.1591 17.0795L18.6705 21.4902H4.37721C4.09432 21.4902 3.823 21.6307 3.62297 21.8807C3.42293 22.1308 3.31055 22.4699 3.31055 22.8235C3.31055 23.1772 3.42293 23.5163 3.62297 23.7663C3.823 24.0164 4.09432 24.1569 4.37721 24.1569H18.6705L15.1591 28.5275ZM26.7772 5.4902H12.9105C12.6276 5.4902 12.3563 5.63067 12.1563 5.88072C11.9563 6.13077 11.8439 6.46991 11.8439 6.82353C11.8439 7.17715 11.9563 7.51629 12.1563 7.76634C12.3563 8.01639 12.6276 8.15686 12.9105 8.15686H25.7105C25.9934 8.15686 26.2647 8.29734 26.4648 8.54739C26.6648 8.79744 26.7772 9.13657 26.7772 9.4902V36.1569C26.7772 36.5105 26.6648 36.8496 26.4648 37.0997C26.2647 37.3497 25.9934 37.4902 25.7105 37.4902H12.3772C12.0943 37.4902 11.823 37.6307 11.623 37.8807C11.4229 38.1308 11.3105 38.4699 11.3105 38.8235C11.3105 39.1772 11.4229 39.5163 11.623 39.7663C11.823 40.0164 12.0943 40.1569 12.3772 40.1569H26.7772C27.343 40.1569 27.8856 39.8759 28.2857 39.3758C28.6858 38.8757 28.9105 38.1974 28.9105 37.4902V8.15686C28.9105 7.44962 28.6858 6.77134 28.2857 6.27124C27.8856 5.77115 27.343 5.4902 26.7772 5.4902Z" fill="#F1F8FF"/>
</g>
<defs>
<clipPath id="clip0_144_1552">
<rect  width="32" height="40" fill="white"/>
</clipPath>
</defs>
</svg>
