<?xml version="1.0" encoding="UTF-8"?>
<svg xmlns="http://www.w3.org/2000/svg" xmlns:xlink="http://www.w3.org/1999/xlink" width="24px" height="29px" viewBox="0 0 24 29" version="1.1">
<g id="surface1">
<path style=" stroke:none;fill-rule:nonzero;fill:rgb(94.509804%,97.254902%,100%);fill-opacity:1;" d="M 11.371094 20.683594 C 11.222656 20.863281 11.140625 21.113281 11.144531 21.363281 C 11.144531 21.617188 11.230469 21.859375 11.378906 22.039062 C 11.527344 22.21875 11.730469 22.316406 11.9375 22.320312 C 12.144531 22.320312 12.347656 22.222656 12.5 22.046875 L 16.765625 16.875 C 16.808594 16.828125 16.832031 16.777344 16.855469 16.71875 C 16.875 16.65625 16.886719 16.597656 16.886719 16.535156 C 16.886719 16.46875 16.875 16.40625 16.855469 16.347656 C 16.832031 16.285156 16.808594 16.234375 16.765625 16.1875 L 12.5 11.015625 C 12.347656 10.839844 12.144531 10.742188 11.9375 10.746094 C 11.730469 10.746094 11.527344 10.847656 11.378906 11.03125 C 11.230469 11.203125 11.144531 11.453125 11.144531 11.703125 C 11.140625 11.957031 11.222656 12.199219 11.371094 12.382812 L 14.003906 15.582031 L 3.28125 15.582031 C 3.074219 15.582031 2.871094 15.683594 2.71875 15.863281 C 2.566406 16.042969 2.484375 16.292969 2.484375 16.550781 C 2.484375 16.800781 2.566406 17.050781 2.71875 17.230469 C 2.871094 17.414062 3.074219 17.511719 3.28125 17.511719 L 14.003906 17.511719 Z M 20.082031 3.980469 L 9.683594 3.980469 C 9.46875 3.980469 9.265625 4.082031 9.121094 4.261719 C 8.96875 4.445312 8.886719 4.691406 8.886719 4.949219 C 8.886719 5.207031 8.96875 5.449219 9.121094 5.632812 C 9.265625 5.8125 9.46875 5.910156 9.683594 5.910156 L 19.28125 5.910156 C 19.496094 5.910156 19.699219 6.015625 19.847656 6.195312 C 20 6.378906 20.082031 6.621094 20.082031 6.878906 L 20.082031 26.214844 C 20.082031 26.472656 20 26.714844 19.847656 26.898438 C 19.699219 27.078125 19.496094 27.183594 19.28125 27.183594 L 9.28125 27.183594 C 9.074219 27.183594 8.871094 27.28125 8.71875 27.464844 C 8.566406 27.644531 8.484375 27.894531 8.484375 28.144531 C 8.484375 28.402344 8.566406 28.648438 8.71875 28.832031 C 8.871094 29.011719 9.074219 29.113281 9.28125 29.113281 L 20.082031 29.113281 C 20.503906 29.113281 20.917969 28.914062 21.214844 28.546875 C 21.515625 28.1875 21.683594 27.691406 21.683594 27.183594 L 21.683594 5.910156 C 21.683594 5.402344 21.515625 4.90625 21.214844 4.546875 C 20.917969 4.1875 20.503906 3.980469 20.082031 3.980469 Z M 20.082031 3.980469 "/>
</g>
</svg>
